<?xml version="1.0" encoding="UTF-8"?>
<svg width="30px" height="30px" viewBox="0 0 30 30" version="1.1" xmlns="http://www.w3.org/2000/svg" xmlns:xlink="http://www.w3.org/1999/xlink">
    <title>ic-instagram-white</title>
    <g id="Page-1" stroke="none" stroke-width="1" fill="none" fill-rule="evenodd">
        <g id="ic-instagram-white" fill="#FFFFFF" fill-rule="nonzero">
            <path d="M15,2.5 C19.07122,2.5 19.5534163,2.5154942 21.1611808,2.5888495 C22.6477759,2.6566971 23.455108,2.9050884 23.9924417,3.1138363 C24.7040851,3.3904318 25.2120647,3.7208939 25.7455854,4.2544146 C26.279106,4.7879353 26.6095682,5.2959149 26.8861031,6.0075583 C27.0949116,6.544892 27.3433028,7.3522241 27.4111505,8.8387587 C27.4845058,10.4465838 27.5,10.92878 27.5,15 C27.5,19.07122 27.4845058,19.5534163 27.4111505,21.1611808 C27.3433028,22.6477759 27.0949116,23.455108 26.8861031,23.9924417 C26.6095682,24.7040851 26.279106,25.2120647 25.7455854,25.7455854 C25.2120647,26.279106 24.7040851,26.6095682 23.9924417,26.8861031 C23.455108,27.0949116 22.6477759,27.343303 21.1611808,27.4111505 C19.5536583,27.4845058 19.0714622,27.5 15,27.5 C10.9285379,27.5 10.4463417,27.4845058 8.8388192,27.4111505 C7.3522241,27.343303 6.544892,27.0949116 6.0076188,26.8861031 C5.2959149,26.6095682 4.7879353,26.279106 4.2544146,25.7455854 C3.7208939,25.2120647 3.3904318,24.7040851 3.1138968,23.9924417 C2.9050884,23.455108 2.6566971,22.6477759 2.5888495,21.1612413 C2.5154942,19.5534163 2.5,19.07122 2.5,15 C2.5,10.92878 2.5154942,10.4465838 2.5888495,8.8388193 C2.6566971,7.3522241 2.9050884,6.544892 3.1138968,6.0075583 C3.3904318,5.2959149 3.7208939,4.7879353 4.2544146,4.2544146 C4.7879353,3.7208939 5.2959149,3.3904318 6.0076188,3.1138363 C6.544892,2.9050884 7.3522241,2.6566971 8.8387587,2.5888495 C10.4465838,2.5154942 10.92878,2.5 15,2.5 L15,2.5 Z M14.9999702,0 C10.9261851,0 10.4154287,0.01726735 8.8155192,0.09026657 C7.2188845,0.16314671 6.1285406,0.41667907 5.1743705,0.78751035 C4.1879879,1.1708456 3.351474,1.6837455 2.5175799,2.5176395 C1.6836859,3.3515335 1.170786,4.1880474 0.7874508,5.17443 C0.41661953,6.1286001 0.16308716,7.2189441 0.09020703,8.8155787 C0.01720781,10.4154287 0,10.9262446 0,15.0000298 C0,19.073815 0.01720781,19.5846308 0.09020703,21.1844808 C0.16308716,22.7811155 0.41661953,23.8714595 0.7874508,24.8256295 C1.170786,25.8119525 1.6836859,26.648526 2.5175799,27.48242 C3.351474,28.3163141 4.1879879,28.829214 5.1743705,29.2125492 C6.1285406,29.5833805 7.2188845,29.8369129 8.8155192,29.9097929 C10.4154287,29.9827922 10.9261851,30 14.9999702,30 C19.0737554,30 19.5845713,29.9827922 21.1844212,29.9097929 C22.7810559,29.8369129 23.8714,29.5833805 24.82557,29.2125492 C25.8119525,28.829214 26.6484664,28.3163141 27.4823605,27.48242 C28.3162546,26.648526 28.8291545,25.8120121 29.2124897,24.8256295 C29.583321,23.8714595 29.8368533,22.7811155 29.9097334,21.1844808 C29.9827327,19.5846308 30,19.073815 30,15.0000298 C30,10.9262446 29.9827327,10.4154287 29.9097334,8.8155787 C29.8368533,7.2189441 29.583321,6.1286001 29.2124897,5.17443 C28.8291545,4.1880474 28.3162546,3.3515335 27.4823605,2.5176395 C26.6484664,1.6837455 25.8119525,1.1708456 24.82557,0.78751035 C23.8714,0.41667907 22.7810559,0.16314671 21.1844212,0.09026657 C19.5845713,0.01726735 19.0737554,0 14.9999702,0 Z M15,7.5 C10.8578827,7.5 7.5,10.8578827 7.5,15 C7.5,19.1421172 10.8578827,22.5 15,22.5 C19.1421172,22.5 22.5,19.1421172 22.5,15 C22.5,10.8578827 19.1421172,7.5 15,7.5 Z M15,20 C12.2386096,20 10,17.7613904 10,15 C10,12.2386096 12.2386096,10 15,10 C17.7613904,10 20,12.2386096 20,15 C20,17.7613904 17.7613904,20 15,20 Z M25,6.6666391 C25,7.5871223 24.253844,8.3333333 23.3333608,8.3333333 C22.4128777,8.3333333 21.6666667,7.5871223 21.6666667,6.6666391 C21.6666667,5.7461559 22.4128777,5 23.3333608,5 C24.253844,5 25,5.7461559 25,6.6666391 Z" id="Shape"></path>
        </g>
    </g>
</svg>