<?xml version="1.0" encoding="utf-8"?>
<!-- Generator: Adobe Illustrator 25.3.1, SVG Export Plug-In . SVG Version: 6.00 Build 0)  -->
<svg version="1.1" id="Layer_1" xmlns="http://www.w3.org/2000/svg" xmlns:xlink="http://www.w3.org/1999/xlink" x="0px" y="0px"
	 viewBox="0 0 2500 2500" style="enable-background:new 0 0 2500 2500;" xml:space="preserve">
<style type="text/css">
	.st0{fill-rule:evenodd;clip-rule:evenodd;fill:#FFFFFF;}
</style>
<path class="st0" d="M468.5,444.9c77.4,62.8,106.4,58.1,251.6,48.4L2089.6,411c29,0,4.9-29-4.8-33.8l-227.4-164.4
	c-43.6-33.8-101.6-72.6-212.9-62.9L318.4,246.7c-48.4,4.8-58,29-38.8,48.4L468.5,444.9z M550.7,764.1V2205
	c0,77.4,38.7,106.4,125.8,101.6l1505.1-87.1c87.1-4.8,96.9-58.1,96.9-121V667.3c0-62.8-24.2-96.7-77.5-91.8L628.1,667.3
	C570.1,672.2,550.7,701.2,550.7,764.1L550.7,764.1z M2036.5,841.4c9.6,43.6,0,87.1-43.6,92l-72.5,14.4v1063.8
	c-63,33.8-121,53.2-169.4,53.2c-77.5,0-96.9-24.2-154.9-96.7l-474.3-744.7v720.5l150.1,33.9c0,0,0,87-121.1,87l-333.8,19.4
	c-9.7-19.4,0-67.7,33.9-77.4l87.1-24.1V1030l-121-9.7c-9.7-43.6,14.5-106.4,82.3-111.2l358.1-24.1l493.6,754.3V972l-125.9-14.4
	c-9.7-53.3,29-91.9,77.4-96.7L2036.5,841.4z M207,116.1L1586.4,14.5c169.4-14.5,213-4.8,319.4,72.5l440.3,309.5
	c72.7,53.2,96.9,67.7,96.9,125.7v1697.3c0,106.4-38.8,169.3-174.2,178.9l-1601.8,96.7c-101.7,4.8-150.1-9.6-203.4-77.4l-324.2-420.7
	c-58.1-77.4-82.3-135.4-82.3-203.1V285.3C57.1,198.3,95.8,125.7,207,116.1z"/>
</svg>
